# xmcd
#
# Track frame offsets:
#	150
#	24240
#	47880
#	64991
#	84409
#	102414
#	120080
#	134113
#	153218
#	167196
#	184289
#	198672
#	212595
#	230286
#	242952
#	261743
#	276271
#	290580
#	302729
#
# Disc length: 4312 seconds
#
# Revision: 1
# Processed by: cddbd v1.5.2PL0 Copyright (c) Steve Scherf et al.
# Submitted via: EZCDAudioConverter 1.3.4.1
#
DISCID=2010d613
DTITLE=BBZ - Na dobra droga CD 02
DYEAR=2013
DGENRE=Country
TTITLE0=Czas na Grass - Prograssie
TTITLE1=Lonstar, Tomasz Szwed, Krzysztof Gablonski - Panie wladzo
TTITLE2=Katarzyna Szubartowska, Jacek Wieczoerk, Johnny Walker Band - Bo ty do
TTITLE2=brze wiesz
TTITLE3=Dorota Krawczyk - Caly swiat, ty i ja
TTITLE4=Kayarzyna Bochenek, Cezary Makiewicz - Jutro cie zostawie
TTITLE5=Katarzyna Bochenek, Mariusz Kalaga - Dar losu
TTITLE6=Alicja Boncol, Mariusz Kalaga  - On pije tequile
TTITLE7=Cezary Makiewicz, Tomasz Szwed - Takich chwil nam do zycia potrzeba
TTITLE8=Alicja Boncol,  Jacek Wieczorek and Johnny Walker Band - Pozwol odejsc
TTITLE9=Janusz Nastarowicz, Agata Zin Bzinkowska and Colorado - Nadzieja
TTITLE10=Cezary Makiewicz, Gustaw Bzinkowski - Nie wiem, nie pytaj mnie
TTITLE11=Krystna Mazur - Chce gory przenosic
TTITLE12=The Trace - Odyseusz
TTITLE13=Cordioband - Moje miejskie rodeo
TTITLE14=Droga na Ostroleke - Berek
TTITLE15=Dorota Krawczyk - Ja uciekam
TTITLE16=West BB - Lowca snow
TTITLE17=Agata Zin Bzinkowska - Bo nie lezy w mej naturze
TTITLE18=Wheels of Steel - Jeszcze pozyjemy
EXTD=
EXTT0=
EXTT1=
EXTT2=
EXTT3=
EXTT4=
EXTT5=
EXTT6=
EXTT7=
EXTT8=
EXTT9=
EXTT10=
EXTT11=
EXTT12=
EXTT13=
EXTT14=
EXTT15=
EXTT16=
EXTT17=
EXTT18=
PLAYORDER=
